Coordinates
nRows=14
nColumns=24

# SIMM Motion File Header:
name Coordinates
datacolumns 24
datarows 14
otherdata 1
range 0.89424999999999988000 0.92150000000000021000
endheader
time	pelvis_tx	pelvis_ty	pelvis_tz	pelvis_tilt	pelvis_list	pelvis_rotation	hip_flexion_r	hip_adduction_r	hip_rotation_r	knee_angle_r	ankle_angle_r	subtalar_angle_r	mtp_angle_r	hip_flexion_l	hip_adduction_l	hip_rotation_l	knee_angle_l	ankle_angle_l	subtalar_angle_l	mtp_angle_l	lumbar_extension	lumbar_bending	lumbar_rotation
      0.89424999999999988000	      0.61129935644725786000	      1.02429511428980270000	      0.03508672732245468600	      5.04488900487095650000	     -1.68965157639647390000	      2.86241327722447410000	      7.19653052534327650000	      2.64622693344841680000	     -6.59648921556059610000	    -18.29764688863143000000	      5.46784055272010150000	      0.13793048275844164000	      8.26606353252180530000	      8.37149402020970790000	     -6.99504240535727730000	     -4.41438363732567750000	    -68.72258699830301500000	     -3.42709347147369180000	     -0.01142942500144253900	     -2.98568053486876070000	    -15.44580605064148500000	      4.63830124264067670000	     -2.70459099187930100000
      0.89674999999999960000	      0.61117412888308664000	      1.02472862350675630000	      0.03547916893607281500	      5.05284691515139620000	     -1.65281870012491990000	      2.81468016314541240000	      6.92664505524421160000	      2.65419378456162970000	     -6.52925789500720200000	    -18.09358329646188700000	      5.45460052885941860000	      0.11746593256170983000	      8.37212793405705470000	      8.68776426076181350000	     -6.92804362900303250000	     -4.40129459787995620000	    -68.79497717929164900000	     -3.23182987773548460000	     -0.04754617129116808100	     -2.85569652215583150000	    -15.45749761000938700000	      4.57837190918936350000	     -2.61007249094003500000
      0.89924999999999933000	      0.61104415535354284000	      1.02515427464014120000	      0.03586420146673356700	      5.05975176806446920000	     -1.61186100251108090000	      2.76499455219345960000	      6.65859885412082960000	      2.65657888238522140000	     -6.45927571333072770000	    -17.89357861276364000000	      5.49322191081390800000	      0.11774103707597579000	      8.39839761108597390000	      9.00092568880883630000	     -6.85142336040635320000	     -4.38353726701130150000	    -68.84962562995286800000	     -3.02560461293273560000	     -0.07293203540446274700	     -2.73344006443826220000	    -15.46868182613115100000	      4.51387549319619550000	     -2.51577018844428620000
      0.90050000000000030000	      0.61097748659073114000	      1.02536386493673090000	      0.03605410000465505300	      5.06282729441777590000	     -1.58989652357806290000	      2.73938847330058440000	      6.52533363921485600000	      2.65574806497246340000	     -6.42323550726902590000	    -17.79565362547203500000	      5.53907689917299350000	      0.12774391865232579000	      8.36993341786357450000	      9.15626929896560780000	     -6.80967945360122330000	     -4.37285208875009080000	    -68.87056042428439200000	     -2.91391505214532250000	     -0.07671494742349965800	     -2.68339436517753960000	    -15.47408985508441900000	      4.47996359745728960000	     -2.46866734873588630000
      0.90300000000000002000	      0.61084076952808308000	      1.02577690768467260000	      0.03642880513739005900	      5.06844152982720610000	     -1.54358856716358360000	      2.68678940949798270000	      6.25998953141857050000	      2.65078541841010700000	     -6.34921734964478550000	    -17.60313528641058400000	      5.67370670631342660000	      0.16155108102650176000	      8.24665072032814090000	      9.46435973196465770000	     -6.72021231724515910000	     -4.34780732603076190000	    -68.89991497333726000000	     -2.67326634442443780000	     -0.06361325179262922200	     -2.59385889987172380000	    -15.48476377880352400000	      4.40949136142875280000	     -2.37454002790378960000
      0.90549999999999975000	      0.61069922148136757000	      1.02618361641730370000	      0.03679668524240425900	      5.07389865967071430000	     -1.49535717301691570000	      2.63270017151028220000	      5.99512231556619390000	      2.64298444094707550000	     -6.27305519233126410000	    -17.41119211085953800000	      5.81528575436388100000	      0.19296222766190305000	      8.11007031798951950000	      9.76871190958836880000	     -6.62446551826413100000	     -4.31816639326006510000	    -68.91242849794224400000	     -2.41886510499208240000	     -0.03053625779752840500	     -2.50935793471466530000	    -15.49588865303364600000	      4.33696994620677410000	     -2.28050875174498650000
      0.90799999999999947000	      0.61055227639416143000	      1.02658650149193890000	      0.03715763107771142400	      5.07981174635195560000	     -1.44655115164317900000	      2.57749739753465510000	      5.72942897513841400000	      2.63400381443811190000	     -6.19529632017761500000	    -17.21457058532902800000	      5.89176389884178150000	      0.19495419012652179000	      8.06892409619125490000	     10.06910222379762800000	     -6.52424397285400830000	     -4.28467540461533500000	    -68.90757437483159700000	     -2.16833069801903290000	      0.00561270741372182570	     -2.41500417218105310000	    -15.50820662037243400000	      4.26400839583692370000	     -2.18655461437179400000
      0.91000195312500032000	      0.61043040132849569000	      1.02690696297245700000	      0.03744158904458436800	      5.08491313659324720000	     -1.40735652192932690000	      2.53261101857674480000	      5.51588315766008820000	      2.62626480347960190000	     -6.13217067529072500000	    -17.05207939222333700000	      5.87977712351872130000	      0.16747135881986913000	      8.14478711489477720000	     10.30697940654445200000	     -6.44121944269420510000	     -4.25568215041179700000	    -68.89088096613623700000	     -1.98138299874060750000	      0.02540683889921951200	     -2.32411724244861070000	    -15.51901070208808200000	      4.20562959140268070000	     -2.11142817165022610000
      0.91100000000000025000	      0.61036821613576964000	      1.02706575265003400000	      0.03758144476105809700	      5.08747565460199970000	     -1.38765184704911420000	      2.51000427348643780000	      5.40932926565141250000	      2.62203795045770290000	     -6.10043268032974510000	    -16.96971838090974300000	      5.85333152859204200000	      0.14643467852520281000	      8.19914337629256810000	     10.42482442425549900000	     -6.39877851808621310000	     -4.24065786962729340000	    -68.87827866786642500000	     -1.89474147677234690000	      0.03005398203324093100	     -2.27112823101666850000	    -15.52459912208053100000	      4.17639271138741290000	     -2.07405713830239870000
      0.91349999999999998000	      0.61020841013047522000	      1.02745892841991090000	      0.03792676114655176000	      5.09346939349032010000	     -1.33685498126620360000	      2.45259995948302920000	      5.14309963403557720000	      2.60910687526808480000	     -6.02005988417906050000	    -16.76262153144301700000	      5.77044547929464270000	      0.09145200668255365500	      8.24304608015644110000	     10.71830459557093600000	     -6.28836258639884880000	     -4.20175734450457130000	    -68.83428382193521600000	     -1.69826330529734990000	      0.02462691738907303600	     -2.10963293395347230000	    -15.53864127616491900000	      4.10164842680304800000	     -1.98089561834956210000
      0.91599999999999970000	      0.61004325235978307000	      1.02784265666532230000	      0.03826514281824100500	      5.09822467495065630000	     -1.28274738431897650000	      2.39384898656034430000	      4.87937659862922240000	      2.59109998234640400000	     -5.93865311298074430000	    -16.56015067086116900000	      5.73570890332891100000	      0.06395882841043903900	      8.06981444025164410000	     11.00976713941957300000	     -6.17085973956680170000	     -4.16144980929897730000	    -68.77301031212786600000	     -1.52245000559706200000	      0.00165428034624639670	     -1.92525553068238240000	    -15.55199296917873200000	      4.02324280137364450000	     -1.88855738718499740000
      0.91849999999999943000	      0.60987332260298344000	      1.02821445047324290000	      0.03859710864602712600	      5.10140066186248740000	     -1.22478297075188690000	      2.33359984072561220000	      4.61928687259301900000	      2.56724939619282160000	     -5.85645323638051170000	    -16.36737570600519100000	      5.81380882740243270000	      0.08894322567723131300	      7.62809075212437280000	     11.29926540170961700000	     -6.04606507349062560000	     -4.11982277387068670000	    -68.69530503297708900000	     -1.35083637151005490000	     -0.02333113489866662400	     -1.74650084643949640000	    -15.56418860576410000000	      3.94046261144765350000	     -1.79709413159623390000
      0.92000781250000030000	      0.60976868644014215000	      1.02843284172357620000	      0.03879450830695449500	      5.10267935966032660000	     -1.18833954249311650000	      2.29658920129907610000	      4.46407484515451360000	      2.55057136900146820000	     -5.80650660108801380000	    -16.25587887908516300000	      5.91667762394443650000	      0.12748234708048978000	      7.25588005022851590000	     11.47271728515846900000	     -5.96793258136195080000	     -4.09395689227251140000	    -68.64085337926771000000	     -1.24274451381542610000	     -0.03231060106621434100	     -1.65217818810682200000	    -15.57109530116008500000	      3.88882992241860580000	     -1.74229886961639520000
      0.92150000000000021000	      0.60966358190754466000	      1.02864505181663700000	      0.03898796705705170200	      5.10365737524741460000	     -1.15170371376451990000	      2.25956504567910610000	      4.31135280996572590000	      2.53311552267314260000	     -5.75668690277964320000	    -16.14807101547186700000	      6.04893704079457790000	      0.17638623378049645000	      6.80988788891846400000	     11.64333788356620800000	     -5.88924282435570930000	     -4.06767388529391560000	    -68.58153216236570400000	     -1.12983680911626210000	     -0.03331771387648144900	     -1.57136742605907510000	    -15.57778880465873600000	      3.83706313506890640000	     -1.68829046115231550000
